<?xml version="1.0" ?><svg id="Layer_1" style="enable-background:new 0 0 128 128;" version="1.1" viewBox="0 0 128 128" xml:space="preserve" xmlns="http://www.w3.org/2000/svg" xmlns:xlink="http://www.w3.org/1999/xlink"><style type="text/css">
	.st0{fill:#FFFFFF;}
</style><circle cx="64" cy="64" r="64"/><g><path class="st0" d="M32.5,43H104c0-2.2-1.8-4-4-4H47.5l-1.3-2.1c-0.7-1.2-2-1.9-3.4-1.9H28c-2.2,0-4,1.8-4,4v20v25.7l4.6-38.1   C28.8,44.5,30.5,43,32.5,43z"/><path class="st0" d="M108.5,47h-72c-2,0-3.7,1.5-4,3.5l-5,42c-0.3,2.4,1.6,4.5,4,4.5h71.9c2,0,3.7-1.5,4-3.5l5-42   C112.7,49.1,110.9,47,108.5,47z"/></g></svg>